<?xml version="1.0" encoding="UTF-8" standalone="no"?>
<!DOCTYPE svg PUBLIC "-//W3C//DTD SVG 1.1//EN" "http://www.w3.org/Graphics/SVG/1.1/DTD/svg11.dtd">
<svg xmlns="http://www.w3.org/2000/svg" version="1.1" viewBox="0 0 439 71">
<clipPath id="clipping-path-0">
<path d="
  M 0.00 0.00
  L 439.00 0.00
  L 439.00 71.00
  L 0.00 71.00
  L 0.00 0.00
  Z"/>
</clipPath>
<g stroke-width="5.00" fill="none" stroke-linecap="butt" clip-path="url(#clipping-path-0)">
<path stroke="#8d98a1" vector-effect="non-scaling-stroke" d="
  M 53.46 16.75
  L 53.46 17.50"
/>
<path stroke="#64727f" vector-effect="non-scaling-stroke" d="
  M 53.46 17.50
  C 52.43 17.24 51.46 17.83 51.05 18.82
  Q 48.09 25.87 53.26 30.35
  C 55.58 32.37 59.45 32.57 62.48 33.39
  A 2.53 2.53 -89.4 0 1 64.27 35.22
  C 65.15 38.72 65.92 42.33 68.07 45.16
  Q 72.36 50.82 79.47 53.01"
/>
<path stroke="#7b8892" vector-effect="non-scaling-stroke" d="
  M 84.23 51.37
  Q 87.33 47.64 88.10 43.11
  Q 88.74 39.31 86.79 35.71
  Q 81.37 25.72 68.68 29.31
  Q 64.02 30.63 61.37 26.64
  Q 58.00 21.57 53.46 17.50"
/>
</g>
<path fill="#76828e" d="
  M 53.46 16.75
  L 53.46 17.50
  C 52.43 17.24 51.46 17.83 51.05 18.82
  Q 48.09 25.87 53.26 30.35
  C 55.58 32.37 59.45 32.57 62.48 33.39
  A 2.53 2.53 -89.4 0 1 64.27 35.22
  C 65.15 38.72 65.92 42.33 68.07 45.16
  Q 72.36 50.82 79.47 53.01
  C 70.78 56.59 67.98 51.19 60.96 48.59
  A 1.15 1.11 41.6 0 0 60.05 48.63
  C 55.49 50.85 50.96 54.47 46.68 55.85
  Q 35.10 59.57 25.68 52.87
  C 1.68 35.81 26.60 2.47 50.46 15.59
  Q 52.27 16.58 53.46 16.75
  Z"
/>
<path fill="#a4adb4" d="
  M 84.23 51.37
  Q 87.33 47.64 88.10 43.11
  Q 88.74 39.31 86.79 35.71
  Q 81.37 25.72 68.68 29.31
  Q 64.02 30.63 61.37 26.64
  Q 58.00 21.57 53.46 17.50
  L 53.46 16.75
  C 60.02 10.44 65.63 15.02 69.65 20.88
  A 2.40 2.40 -20.9 0 0 71.94 21.90
  C 75.34 21.45 79.21 20.35 82.36 20.48
  C 102.19 21.33 104.07 50.05 84.23 51.37
  Z"
/>
<path fill="#526270" d="
  M 53.46 17.50
  Q 58.00 21.57 61.37 26.64
  Q 64.02 30.63 68.68 29.31
  Q 81.37 25.72 86.79 35.71
  Q 88.74 39.31 88.10 43.11
  Q 87.33 47.64 84.23 51.37
  Q 81.92 52.97 79.47 53.01
  Q 72.36 50.82 68.07 45.16
  C 65.92 42.33 65.15 38.72 64.27 35.22
  A 2.53 2.53 -89.4 0 0 62.48 33.39
  C 59.45 32.57 55.58 32.37 53.26 30.35
  Q 48.09 25.87 51.05 18.82
  C 51.46 17.83 52.43 17.24 53.46 17.50
  Z"
/>
<path fill="#20374a" d="
  M 163.47 22.62
  Q 162.78 22.41 162.02 22.48
  A 1.07 0.84 -19.9 0 1 161.17 22.20
  C 156.82 17.28 167.62 18.53 168.91 18.52
  A 1.10 1.08 -0.0 0 1 170.03 19.62
  L 169.70 46.33
  A 0.57 0.49 -88.4 0 0 170.17 46.91
  L 172.67 47.01
  A 1.12 0.79 -9.8 0 1 173.47 47.39
  C 175.18 49.95 173.57 51.40 170.92 51.21
  Q 166.32 50.87 161.77 51.01
  A 1.02 0.90 -16.4 0 1 160.96 50.63
  Q 160.08 49.39 160.56 47.94
  A 0.99 0.80 0.2 0 1 161.25 47.38
  Q 162.83 47.04 163.87 45.92
  A 1.28 1.24 66.8 0 0 164.21 45.03
  L 163.96 23.32
  A 0.74 0.71 -81.4 0 0 163.47 22.62
  Z"
/>
<circle fill="#20374a" cx="338.35" cy="22.86" r="3.35"/>
<path fill="#20374a" d="
  M 136.09 25.50
  A 0.53 0.53 -14.5 0 0 135.66 26.23
  Q 139.78 36.39 143.20 44.75
  C 143.87 46.40 144.76 46.83 146.36 47.24
  A 1.38 1.01 -3.3 0 1 147.13 47.74
  Q 148.23 49.41 146.85 50.68
  A 1.43 1.10 18.3 0 1 145.96 50.99
  L 135.28 51.00
  A 0.79 0.76 -11.5 0 1 134.57 50.55
  Q 133.16 47.26 136.71 46.41
  Q 138.57 45.95 136.64 44.08
  C 134.68 42.17 129.75 43.43 127.01 43.04
  A 1.80 1.27 27.4 0 0 126.07 43.17
  Q 124.15 44.14 124.72 46.15
  A 0.75 0.64 -4.5 0 0 125.38 46.63
  Q 129.11 46.79 127.89 50.16
  A 1.63 1.53 9.7 0 1 126.35 51.18
  L 115.79 51.01
  A 0.90 0.75 -10.6 0 1 115.04 50.59
  Q 114.10 48.74 115.22 47.19
  A 1.28 0.96 9.9 0 1 116.04 46.77
  C 119.11 46.48 119.33 44.59 120.31 42.20
  Q 123.32 34.85 126.37 27.08
  A 1.40 1.40 -70.8 0 0 125.48 25.23
  Q 123.17 24.52 123.83 21.86
  A 1.85 1.82 -82.1 0 1 125.65 20.46
  L 137.45 20.80
  A 0.84 0.79 -11.3 0 1 138.18 21.26
  Q 139.90 25.02 136.09 25.50
  Z
  M 127.29 38.24
  A 0.72 0.72 -79.9 0 0 127.97 39.21
  L 133.87 39.16
  A 0.72 0.72 -9.5 0 0 134.54 38.18
  L 131.52 30.41
  A 0.72 0.72 35.4 0 0 130.17 30.43
  L 127.29 38.24
  Z"
/>
<path fill="#20374a" d="
  M 313.80 33.28
  L 315.34 32.51
  A 1.58 0.44 -32.3 0 1 316.24 32.24
  C 321.09 32.64 315.73 37.26 314.59 37.98
  A 1.93 1.52 -9.8 0 0 313.95 38.69
  Q 312.36 42.03 312.42 45.78
  A 0.61 0.60 5.9 0 0 312.91 46.37
  C 314.74 46.71 319.25 47.98 316.10 50.67
  A 1.50 1.27 20.9 0 1 315.22 50.98
  Q 312.61 51.02 305.68 50.88
  Q 301.62 50.80 303.50 47.65
  A 1.67 1.16 -5.0 0 1 304.22 47.05
  Q 307.31 45.66 307.17 41.73
  A 2.45 2.32 12.0 0 0 305.73 39.64
  L 296.67 35.55
  A 0.82 0.80 11.0 0 0 295.52 36.31
  Q 295.70 40.97 294.84 46.01
  A 0.50 0.45 9.5 0 0 295.26 46.54
  L 298.50 47.12
  A 1.07 0.91 80.2 0 1 299.20 47.71
  Q 300.68 50.97 296.94 50.96
  Q 291.74 50.93 286.54 51.00
  A 0.71 0.67 -8.4 0 1 285.87 50.53
  Q 285.34 48.84 286.21 47.44
  A 1.58 0.99 -2.7 0 1 286.99 46.90
  C 290.31 45.83 289.76 41.19 289.65 38.43
  Q 289.58 36.49 288.24 37.89
  Q 287.06 39.12 285.19 38.55
  Q 282.12 37.62 285.04 35.55
  C 287.08 34.11 289.22 32.85 289.68 30.25
  Q 290.39 26.25 286.57 24.51
  A 1.33 1.06 6.9 0 1 285.91 23.84
  Q 285.38 22.38 286.02 21.19
  A 0.98 0.87 10.3 0 1 286.78 20.73
  C 289.40 20.56 301.11 19.31 299.28 23.93
  A 1.10 0.92 -0.5 0 1 298.60 24.51
  Q 293.84 25.94 295.93 30.95
  A 1.24 1.22 -89.6 0 0 296.58 31.62
  L 305.52 35.55
  A 1.22 1.15 10.6 0 0 307.22 34.46
  L 306.68 26.84
  A 2.11 1.72 9.2 0 0 305.24 25.22
  Q 302.42 24.30 303.36 21.41
  A 0.80 0.78 6.1 0 1 304.04 20.88
  Q 310.01 20.32 315.95 20.93
  A 0.90 0.83 -7.0 0 1 316.66 21.44
  Q 318.21 25.14 314.01 25.27
  A 1.35 1.33 86.8 0 0 312.72 26.73
  L 313.27 32.94
  A 0.40 0.36 74.6 0 0 313.80 33.28
  Z"
/>
<path fill="#20374a" d="
  M 265.30 28.53
  L 269.22 28.81
  A 0.84 0.65 -6.4 0 1 269.91 29.23
  Q 271.72 33.68 266.04 32.57
  A 1.06 1.05 5.6 0 0 264.77 33.60
  L 264.75 44.49
  A 1.44 1.25 -67.5 0 0 265.05 45.39
  Q 266.77 47.45 269.58 47.42
  A 1.05 0.89 -16.3 0 1 270.39 47.78
  Q 272.30 50.23 270.17 50.91
  Q 268.61 51.41 266.99 51.17
  Q 259.06 49.98 259.02 43.74
  Q 258.99 38.54 258.98 33.73
  A 1.00 0.99 -89.1 0 0 258.02 32.73
  Q 254.86 32.64 255.63 29.77
  A 1.35 1.17 84.9 0 1 256.18 29.01
  Q 257.11 28.43 258.27 28.52
  A 0.91 0.91 80.9 0 0 259.18 27.26
  Q 258.66 26.02 259.29 24.73
  A 1.33 1.22 1.4 0 1 260.00 24.11
  Q 261.96 23.38 264.04 23.50
  A 0.60 0.57 0.1 0 1 264.60 24.04
  L 264.82 27.94
  A 0.63 0.51 89.6 0 0 265.30 28.53
  Z"
/>
<path fill="#20374a" d="
  M 193.82 41.56
  C 194.11 47.61 199.30 48.23 203.17 44.59
  A 1.17 0.99 -60.6 0 1 204.03 44.27
  Q 205.99 44.44 207.08 45.76
  A 1.67 1.66 -42.3 0 1 206.97 47.99
  C 202.68 52.30 195.90 52.91 191.43 48.80
  C 186.38 44.17 186.89 34.72 192.17 30.61
  C 199.96 24.53 210.27 30.57 208.42 40.31
  A 0.63 0.62 -85.5 0 1 207.82 40.83
  L 194.31 41.06
  A 0.50 0.48 -1.7 0 0 193.82 41.56
  Z
  M 202.55 36.92
  C 203.72 32.77 197.39 32.01 194.89 34.76
  Q 192.40 37.50 196.03 37.47
  L 201.89 37.43
  A 0.70 0.70 7.3 0 0 202.55 36.92
  Z"
/>
<path fill="#20374a" d="
  M 232.74 30.93
  Q 235.94 29.07 239.89 28.23
  Q 242.00 27.78 241.99 29.89
  L 241.98 34.70
  A 1.53 1.25 69.4 0 1 241.67 35.62
  Q 240.55 36.99 238.68 36.43
  A 1.21 0.99 82.9 0 1 238.02 35.80
  Q 236.22 31.77 233.17 35.34
  A 1.20 1.10 63.3 0 0 232.92 36.22
  Q 233.50 41.21 232.16 45.97
  A 0.66 0.61 -68.8 0 0 232.45 46.71
  Q 233.55 47.28 234.79 47.01
  A 0.84 0.72 -22.7 0 1 235.59 47.27
  C 239.83 52.94 226.46 50.94 224.46 51.04
  A 0.91 0.82 -16.4 0 1 223.67 50.66
  Q 222.86 49.39 223.33 47.96
  A 0.97 0.80 -1.0 0 1 224.00 47.39
  C 226.48 46.80 227.27 45.30 227.25 42.75
  C 227.24 39.99 228.53 33.09 224.54 32.56
  A 1.28 0.94 -8.7 0 1 223.74 32.14
  C 220.41 27.70 229.11 28.58 230.61 28.80
  A 0.97 0.97 80.4 0 1 231.34 29.32
  L 232.08 30.74
  A 0.48 0.47 -28.9 0 0 232.74 30.93
  Z"
/>
<path fill="#20374a" d="
  M 401.37 41.07
  A 1.04 1.03 -11.5 0 0 400.42 42.49
  Q 403.59 50.17 409.64 44.93
  A 2.41 2.41 -51.0 0 1 412.38 44.64
  C 415.24 46.22 414.32 48.21 412.09 49.53
  C 398.31 57.67 388.47 39.40 398.70 30.77
  C 406.35 24.32 416.74 30.30 415.09 40.32
  A 0.61 0.60 3.9 0 1 414.50 40.82
  L 401.37 41.07
  Z
  M 401.68 34.95
  Q 399.74 36.85 402.42 37.31
  Q 404.19 37.61 408.12 37.45
  Q 410.47 37.35 409.30 35.31
  Q 406.41 30.29 401.68 34.95
  Z"
/>
<path fill="#20374a" d="
  M 334.19 46.51
  A 1.63 1.54 -3.4 0 0 335.66 44.95
  L 335.48 34.04
  A 0.82 0.69 -82.3 0 0 335.01 33.29
  L 333.20 32.66
  Q 332.52 32.42 332.36 32.23
  Q 330.93 30.65 332.37 29.08
  A 1.26 1.18 -67.6 0 1 333.23 28.69
  L 340.12 28.53
  A 1.20 1.12 89.5 0 1 341.26 29.73
  Q 341.23 36.28 341.27 42.80
  C 341.27 44.52 339.36 47.39 342.74 47.00
  A 0.97 0.85 -21.1 0 1 343.56 47.30
  Q 345.01 49.07 343.66 50.67
  A 1.19 1.00 17.2 0 1 342.81 51.03
  L 332.77 50.96
  A 0.80 0.76 -10.1 0 1 332.06 50.49
  Q 330.56 46.86 334.19 46.51
  Z"
/>
<path fill="#20374a" d="
  M 369.14 44.74
  Q 369.67 46.38 370.19 44.70
  L 373.39 34.21
  A 0.85 0.65 -65.3 0 0 373.20 33.37
  L 371.88 32.34
  Q 371.34 31.91 371.23 31.66
  Q 370.66 30.27 371.46 29.15
  A 1.07 0.87 14.4 0 1 372.28 28.77
  L 380.95 28.76
  A 0.90 0.81 -12.5 0 1 381.72 29.19
  Q 382.53 30.75 381.60 32.18
  A 1.51 0.94 -1.2 0 1 380.82 32.69
  C 379.64 33.03 379.06 33.29 378.59 34.54
  Q 376.06 41.33 373.47 48.10
  C 372.20 51.41 369.68 52.23 366.60 50.78
  A 1.28 1.19 -89.0 0 1 365.98 50.09
  L 359.94 34.22
  A 1.47 1.21 9.1 0 0 359.33 33.53
  L 357.22 32.28
  A 1.44 1.38 5.0 0 1 356.60 31.57
  C 354.85 27.22 364.49 28.76 366.62 28.79
  A 0.89 0.86 -13.4 0 1 367.37 29.23
  Q 368.92 32.01 366.16 32.91
  A 0.84 0.79 -18.0 0 0 365.61 33.92
  L 369.14 44.74
  Z"
/>
</svg>
